<?xml version="1.0" encoding="UTF-8"?><svg fill-opacity="1" color-rendering="auto" color-interpolation="auto" text-rendering="auto" stroke="black" stroke-linecap="square" stroke-miterlimit="10" shape-rendering="auto" stroke-opacity="1" fill="black" preserveAspectRatio="xMinYMin meet" stroke-dasharray="none" font-weight="normal" stroke-width="1" viewBox="0 0 793 1122" font-family="'Dialog'" font-style="normal" stroke-linejoin="miter" font-size="12" stroke-dashoffset="0" image-rendering="auto" xmlns="http://www.w3.org/2000/svg">
<!--Generated by the Batik Graphics2D SVG Generator-->
<defs id="genericDefs"/>
<g>
<defs id="defs1">
<clipPath clipPathUnits="userSpaceOnUse" id="clipPath1">
<path d="M0 0 L793 0 L793 1122 L0 1122 L0 0 Z"/>
</clipPath>
<clipPath clipPathUnits="userSpaceOnUse" id="clipPath2">
<path d="M512.6726 -115.7012 L1073.4083 445.0345 L280.0345 1238.4083 L-280.7012 677.6726 L512.6726 -115.7012 Z"/>
</clipPath>
<clipPath clipPathUnits="userSpaceOnUse" id="clipPath3">
<path d="M-76.75 -63.75 L914.5 -63.75 L914.5 1338.75 L-76.75 1338.75 L-76.75 -63.75 Z"/>
</clipPath>
<clipPath clipPathUnits="userSpaceOnUse" id="clipPath4">
<path d="M-78.75 -63.75 L912.5 -63.75 L912.5 1338.75 L-78.75 1338.75 L-78.75 -63.75 Z"/>
</clipPath>
<clipPath clipPathUnits="userSpaceOnUse" id="clipPath5">
<path d="M-80.75 -63.75 L910.5 -63.75 L910.5 1338.75 L-80.75 1338.75 L-80.75 -63.75 Z"/>
</clipPath>
<clipPath clipPathUnits="userSpaceOnUse" id="clipPath6">
<path d="M-82.75 -63.75 L908.5 -63.75 L908.5 1338.75 L-82.75 1338.75 L-82.75 -63.75 Z"/>
</clipPath>
<clipPath clipPathUnits="userSpaceOnUse" id="clipPath7">
<path d="M-84.25 -63.75 L907 -63.75 L907 1338.75 L-84.25 1338.75 L-84.25 -63.75 Z"/>
</clipPath>
<clipPath clipPathUnits="userSpaceOnUse" id="clipPath8">
<path d="M-86.25 -63.75 L905 -63.75 L905 1338.75 L-86.25 1338.75 L-86.25 -63.75 Z"/>
</clipPath>
<clipPath clipPathUnits="userSpaceOnUse" id="clipPath9">
<path d="M-88 -63.75 L903.25 -63.75 L903.25 1338.75 L-88 1338.75 L-88 -63.75 Z"/>
</clipPath>
<clipPath clipPathUnits="userSpaceOnUse" id="clipPath10">
<path d="M-90 -63.75 L901.25 -63.75 L901.25 1338.75 L-90 1338.75 L-90 -63.75 Z"/>
</clipPath>
<clipPath clipPathUnits="userSpaceOnUse" id="clipPath11">
<path d="M-91.75 -63.75 L899.5 -63.75 L899.5 1338.75 L-91.75 1338.75 L-91.75 -63.75 Z"/>
</clipPath>
<clipPath clipPathUnits="userSpaceOnUse" id="clipPath12">
<path d="M-244.0278 -138.444 L976.1555 -138.444 L976.1555 1587.9692 L-244.0278 1587.9692 L-244.0278 -138.444 Z"/>
</clipPath>
<clipPath clipPathUnits="userSpaceOnUse" id="clipPath13">
<path d="M-246.1826 -138.444 L974.0007 -138.444 L974.0007 1587.9692 L-246.1826 1587.9692 L-246.1826 -138.444 Z"/>
</clipPath>
<clipPath clipPathUnits="userSpaceOnUse" id="clipPath14">
<path d="M-248.876 -138.444 L971.3073 -138.444 L971.3073 1587.9692 L-248.876 1587.9692 L-248.876 -138.444 Z"/>
</clipPath>
<clipPath clipPathUnits="userSpaceOnUse" id="clipPath15">
<path d="M-251.5695 -138.444 L968.6138 -138.444 L968.6138 1587.9692 L-251.5695 1587.9692 L-251.5695 -138.444 Z"/>
</clipPath>
<clipPath clipPathUnits="userSpaceOnUse" id="clipPath16">
<path d="M-253.7243 -138.444 L966.459 -138.444 L966.459 1587.9692 L-253.7243 1587.9692 L-253.7243 -138.444 Z"/>
</clipPath>
<clipPath clipPathUnits="userSpaceOnUse" id="clipPath17">
<path d="M-256.4177 -138.444 L963.7656 -138.444 L963.7656 1587.9692 L-256.4177 1587.9692 L-256.4177 -138.444 Z"/>
</clipPath>
<clipPath clipPathUnits="userSpaceOnUse" id="clipPath18">
<path d="M-258.0338 -138.444 L962.1495 -138.444 L962.1495 1587.9692 L-258.0338 1587.9692 L-258.0338 -138.444 Z"/>
</clipPath>
<clipPath clipPathUnits="userSpaceOnUse" id="clipPath19">
<path d="M-259.1112 -138.444 L961.0721 -138.444 L961.0721 1587.9692 L-259.1112 1587.9692 L-259.1112 -138.444 Z"/>
</clipPath>
<clipPath clipPathUnits="userSpaceOnUse" id="clipPath20">
<path d="M-261.266 -138.444 L958.9174 -138.444 L958.9174 1587.9692 L-261.266 1587.9692 L-261.266 -138.444 Z"/>
</clipPath>
<clipPath clipPathUnits="userSpaceOnUse" id="clipPath21">
<path d="M-266.6529 -135.2119 L953.5305 -135.2119 L953.5305 1591.2013 L-266.6529 1591.2013 L-266.6529 -135.2119 Z"/>
</clipPath>
<clipPath clipPathUnits="userSpaceOnUse" id="clipPath22">
<path d="M-269.3463 -135.2119 L950.837 -135.2119 L950.837 1591.2013 L-269.3463 1591.2013 L-269.3463 -135.2119 Z"/>
</clipPath>
<clipPath clipPathUnits="userSpaceOnUse" id="clipPath23">
<path d="M-271.5011 -135.2119 L948.6822 -135.2119 L948.6822 1591.2013 L-271.5011 1591.2013 L-271.5011 -135.2119 Z"/>
</clipPath>
<clipPath clipPathUnits="userSpaceOnUse" id="clipPath24">
<path d="M-274.1946 -135.2119 L945.9887 -135.2119 L945.9887 1591.2013 L-274.1946 1591.2013 L-274.1946 -135.2119 Z"/>
</clipPath>
<clipPath clipPathUnits="userSpaceOnUse" id="clipPath25">
<path d="M-276.8881 -135.2119 L943.2953 -135.2119 L943.2953 1591.2013 L-276.8881 1591.2013 L-276.8881 -135.2119 Z"/>
</clipPath>
<clipPath clipPathUnits="userSpaceOnUse" id="clipPath26">
<path d="M-277.9655 -135.2119 L942.2179 -135.2119 L942.2179 1591.2013 L-277.9655 1591.2013 L-277.9655 -135.2119 Z"/>
</clipPath>
<clipPath clipPathUnits="userSpaceOnUse" id="clipPath27">
<path d="M-280.6589 -135.2119 L939.5244 -135.2119 L939.5244 1591.2013 L-280.6589 1591.2013 L-280.6589 -135.2119 Z"/>
</clipPath>
<clipPath clipPathUnits="userSpaceOnUse" id="clipPath28">
<path d="M-283.3524 -135.2119 L936.8309 -135.2119 L936.8309 1591.2013 L-283.3524 1591.2013 L-283.3524 -135.2119 Z"/>
</clipPath>
<clipPath clipPathUnits="userSpaceOnUse" id="clipPath29">
<path d="M-284.9684 -135.2119 L935.2149 -135.2119 L935.2149 1591.2013 L-284.9684 1591.2013 L-284.9684 -135.2119 Z"/>
</clipPath>
<clipPath clipPathUnits="userSpaceOnUse" id="clipPath30">
<path d="M-285.5071 -135.2119 L934.6762 -135.2119 L934.6762 1591.2013 L-285.5071 1591.2013 L-285.5071 -135.2119 Z"/>
</clipPath>
<clipPath clipPathUnits="userSpaceOnUse" id="clipPath31">
<path d="M-288.2006 -135.2119 L931.9827 -135.2119 L931.9827 1591.2013 L-288.2006 1591.2013 L-288.2006 -135.2119 Z"/>
</clipPath>
<clipPath clipPathUnits="userSpaceOnUse" id="clipPath32">
<path d="M-85.1134 -152.9887 L1135.0698 -152.9887 L1135.0698 1573.4244 L-85.1134 1573.4244 L-85.1134 -152.9887 Z"/>
</clipPath>
<clipPath clipPathUnits="userSpaceOnUse" id="clipPath33">
<path d="M87 0 L87 820 L293 820 L293 0 Z"/>
</clipPath>
<clipPath clipPathUnits="userSpaceOnUse" id="clipPath34">
<path d="M29.8986 -424.4899 L29.8986 837.2382 L346.8693 837.2382 L346.8693 -424.4899 Z"/>
</clipPath>
<clipPath clipPathUnits="userSpaceOnUse" id="clipPath35">
<path d="M294 0 L294 792 L705 792 L705 0 Z"/>
</clipPath>
<clipPath clipPathUnits="userSpaceOnUse" id="clipPath36">
<path d="M181.9519 -416.9482 L181.9519 801.6965 L814.3546 801.6965 L814.3546 -416.9482 Z"/>
</clipPath>
<clipPath clipPathUnits="userSpaceOnUse" id="clipPath37">
<path d="M294 0 L294 820 L499 820 L499 0 Z"/>
</clipPath>
<clipPath clipPathUnits="userSpaceOnUse" id="clipPath38">
<path d="M-51.1758 -539.2314 L1169.0076 -539.2314 L1169.0076 1187.1818 L-51.1758 1187.1818 L-51.1758 -539.2314 Z"/>
</clipPath>
<clipPath clipPathUnits="userSpaceOnUse" id="clipPath39">
<path d="M-51.1758 -553.7761 L1169.0076 -553.7761 L1169.0076 1172.6371 L-51.1758 1172.6371 L-51.1758 -553.7761 Z"/>
</clipPath>
</defs>
<g font-size="100" transform="translate(396,561) rotate(-45) translate(-396,-561)">
<text x="-396" xml:space="preserve" y="-561" clip-path="url(#clipPath2)" stroke="none"/>
<text x="-396" xml:space="preserve" y="-411" clip-path="url(#clipPath2)" stroke="none"/>
<text x="-396" xml:space="preserve" y="-261" clip-path="url(#clipPath2)" stroke="none"/>
<text x="-396" xml:space="preserve" y="-111" clip-path="url(#clipPath2)" stroke="none"/>
<text x="-396" xml:space="preserve" y="39" clip-path="url(#clipPath2)" stroke="none"/>
<text x="-396" xml:space="preserve" y="189" clip-path="url(#clipPath2)" stroke="none"/>
<text x="-396" xml:space="preserve" y="339" clip-path="url(#clipPath2)" stroke="none"/>
<text x="-396" xml:space="preserve" y="489" clip-path="url(#clipPath2)" stroke="none"/>
<text x="-396" xml:space="preserve" y="639" clip-path="url(#clipPath2)" stroke="none"/>
<text x="-396" xml:space="preserve" y="789" clip-path="url(#clipPath2)" stroke="none"/>
<text x="-396" xml:space="preserve" y="939" clip-path="url(#clipPath2)" stroke="none"/>
<text x="-396" xml:space="preserve" y="1089" clip-path="url(#clipPath2)" stroke="none"/>
<text x="-396" xml:space="preserve" y="1239" clip-path="url(#clipPath2)" stroke="none"/>
<text x="-396" xml:space="preserve" y="1389" clip-path="url(#clipPath2)" stroke="none"/>
<text x="-396" xml:space="preserve" y="1539" clip-path="url(#clipPath2)" stroke="none"/>
<text x="-246" xml:space="preserve" y="-561" clip-path="url(#clipPath2)" stroke="none"/>
<text x="-246" xml:space="preserve" y="-411" clip-path="url(#clipPath2)" stroke="none"/>
<text x="-246" xml:space="preserve" y="-261" clip-path="url(#clipPath2)" stroke="none"/>
<text x="-246" xml:space="preserve" y="-111" clip-path="url(#clipPath2)" stroke="none"/>
<text x="-246" xml:space="preserve" y="39" clip-path="url(#clipPath2)" stroke="none"/>
<text x="-246" xml:space="preserve" y="189" clip-path="url(#clipPath2)" stroke="none"/>
<text x="-246" xml:space="preserve" y="339" clip-path="url(#clipPath2)" stroke="none"/>
<text x="-246" xml:space="preserve" y="489" clip-path="url(#clipPath2)" stroke="none"/>
<text x="-246" xml:space="preserve" y="639" clip-path="url(#clipPath2)" stroke="none"/>
<text x="-246" xml:space="preserve" y="789" clip-path="url(#clipPath2)" stroke="none"/>
<text x="-246" xml:space="preserve" y="939" clip-path="url(#clipPath2)" stroke="none"/>
<text x="-246" xml:space="preserve" y="1089" clip-path="url(#clipPath2)" stroke="none"/>
<text x="-246" xml:space="preserve" y="1239" clip-path="url(#clipPath2)" stroke="none"/>
<text x="-246" xml:space="preserve" y="1389" clip-path="url(#clipPath2)" stroke="none"/>
<text x="-246" xml:space="preserve" y="1539" clip-path="url(#clipPath2)" stroke="none"/>
<text x="-96" xml:space="preserve" y="-561" clip-path="url(#clipPath2)" stroke="none"/>
<text x="-96" xml:space="preserve" y="-411" clip-path="url(#clipPath2)" stroke="none"/>
<text x="-96" xml:space="preserve" y="-261" clip-path="url(#clipPath2)" stroke="none"/>
<text x="-96" xml:space="preserve" y="-111" clip-path="url(#clipPath2)" stroke="none"/>
<text x="-96" xml:space="preserve" y="39" clip-path="url(#clipPath2)" stroke="none"/>
<text x="-96" xml:space="preserve" y="189" clip-path="url(#clipPath2)" stroke="none"/>
<text x="-96" xml:space="preserve" y="339" clip-path="url(#clipPath2)" stroke="none"/>
<text x="-96" xml:space="preserve" y="489" clip-path="url(#clipPath2)" stroke="none"/>
<text x="-96" xml:space="preserve" y="639" clip-path="url(#clipPath2)" stroke="none"/>
<text x="-96" xml:space="preserve" y="789" clip-path="url(#clipPath2)" stroke="none"/>
<text x="-96" xml:space="preserve" y="939" clip-path="url(#clipPath2)" stroke="none"/>
<text x="-96" xml:space="preserve" y="1089" clip-path="url(#clipPath2)" stroke="none"/>
<text x="-96" xml:space="preserve" y="1239" clip-path="url(#clipPath2)" stroke="none"/>
<text x="-96" xml:space="preserve" y="1389" clip-path="url(#clipPath2)" stroke="none"/>
<text x="-96" xml:space="preserve" y="1539" clip-path="url(#clipPath2)" stroke="none"/>
<text x="54" xml:space="preserve" y="-561" clip-path="url(#clipPath2)" stroke="none"/>
<text x="54" xml:space="preserve" y="-411" clip-path="url(#clipPath2)" stroke="none"/>
<text x="54" xml:space="preserve" y="-261" clip-path="url(#clipPath2)" stroke="none"/>
<text x="54" xml:space="preserve" y="-111" clip-path="url(#clipPath2)" stroke="none"/>
<text x="54" xml:space="preserve" y="39" clip-path="url(#clipPath2)" stroke="none"/>
<text x="54" xml:space="preserve" y="189" clip-path="url(#clipPath2)" stroke="none"/>
<text x="54" xml:space="preserve" y="339" clip-path="url(#clipPath2)" stroke="none"/>
<text x="54" xml:space="preserve" y="489" clip-path="url(#clipPath2)" stroke="none"/>
<text x="54" xml:space="preserve" y="639" clip-path="url(#clipPath2)" stroke="none"/>
<text x="54" xml:space="preserve" y="789" clip-path="url(#clipPath2)" stroke="none"/>
<text x="54" xml:space="preserve" y="939" clip-path="url(#clipPath2)" stroke="none"/>
<text x="54" xml:space="preserve" y="1089" clip-path="url(#clipPath2)" stroke="none"/>
<text x="54" xml:space="preserve" y="1239" clip-path="url(#clipPath2)" stroke="none"/>
<text x="54" xml:space="preserve" y="1389" clip-path="url(#clipPath2)" stroke="none"/>
<text x="54" xml:space="preserve" y="1539" clip-path="url(#clipPath2)" stroke="none"/>
<text x="204" xml:space="preserve" y="-561" clip-path="url(#clipPath2)" stroke="none"/>
<text x="204" xml:space="preserve" y="-411" clip-path="url(#clipPath2)" stroke="none"/>
<text x="204" xml:space="preserve" y="-261" clip-path="url(#clipPath2)" stroke="none"/>
<text x="204" xml:space="preserve" y="-111" clip-path="url(#clipPath2)" stroke="none"/>
<text x="204" xml:space="preserve" y="39" clip-path="url(#clipPath2)" stroke="none"/>
<text x="204" xml:space="preserve" y="189" clip-path="url(#clipPath2)" stroke="none"/>
<text x="204" xml:space="preserve" y="339" clip-path="url(#clipPath2)" stroke="none"/>
<text x="204" xml:space="preserve" y="489" clip-path="url(#clipPath2)" stroke="none"/>
<text x="204" xml:space="preserve" y="639" clip-path="url(#clipPath2)" stroke="none"/>
<text x="204" xml:space="preserve" y="789" clip-path="url(#clipPath2)" stroke="none"/>
<text x="204" xml:space="preserve" y="939" clip-path="url(#clipPath2)" stroke="none"/>
<text x="204" xml:space="preserve" y="1089" clip-path="url(#clipPath2)" stroke="none"/>
<text x="204" xml:space="preserve" y="1239" clip-path="url(#clipPath2)" stroke="none"/>
<text x="204" xml:space="preserve" y="1389" clip-path="url(#clipPath2)" stroke="none"/>
<text x="204" xml:space="preserve" y="1539" clip-path="url(#clipPath2)" stroke="none"/>
<text x="354" xml:space="preserve" y="-561" clip-path="url(#clipPath2)" stroke="none"/>
<text x="354" xml:space="preserve" y="-411" clip-path="url(#clipPath2)" stroke="none"/>
<text x="354" xml:space="preserve" y="-261" clip-path="url(#clipPath2)" stroke="none"/>
<text x="354" xml:space="preserve" y="-111" clip-path="url(#clipPath2)" stroke="none"/>
<text x="354" xml:space="preserve" y="39" clip-path="url(#clipPath2)" stroke="none"/>
<text x="354" xml:space="preserve" y="189" clip-path="url(#clipPath2)" stroke="none"/>
<text x="354" xml:space="preserve" y="339" clip-path="url(#clipPath2)" stroke="none"/>
<text x="354" xml:space="preserve" y="489" clip-path="url(#clipPath2)" stroke="none"/>
<text x="354" xml:space="preserve" y="639" clip-path="url(#clipPath2)" stroke="none"/>
<text x="354" xml:space="preserve" y="789" clip-path="url(#clipPath2)" stroke="none"/>
<text x="354" xml:space="preserve" y="939" clip-path="url(#clipPath2)" stroke="none"/>
<text x="354" xml:space="preserve" y="1089" clip-path="url(#clipPath2)" stroke="none"/>
<text x="354" xml:space="preserve" y="1239" clip-path="url(#clipPath2)" stroke="none"/>
<text x="354" xml:space="preserve" y="1389" clip-path="url(#clipPath2)" stroke="none"/>
<text x="354" xml:space="preserve" y="1539" clip-path="url(#clipPath2)" stroke="none"/>
<text x="504" xml:space="preserve" y="-561" clip-path="url(#clipPath2)" stroke="none"/>
<text x="504" xml:space="preserve" y="-411" clip-path="url(#clipPath2)" stroke="none"/>
<text x="504" xml:space="preserve" y="-261" clip-path="url(#clipPath2)" stroke="none"/>
<text x="504" xml:space="preserve" y="-111" clip-path="url(#clipPath2)" stroke="none"/>
<text x="504" xml:space="preserve" y="39" clip-path="url(#clipPath2)" stroke="none"/>
<text x="504" xml:space="preserve" y="189" clip-path="url(#clipPath2)" stroke="none"/>
<text x="504" xml:space="preserve" y="339" clip-path="url(#clipPath2)" stroke="none"/>
<text x="504" xml:space="preserve" y="489" clip-path="url(#clipPath2)" stroke="none"/>
<text x="504" xml:space="preserve" y="639" clip-path="url(#clipPath2)" stroke="none"/>
<text x="504" xml:space="preserve" y="789" clip-path="url(#clipPath2)" stroke="none"/>
<text x="504" xml:space="preserve" y="939" clip-path="url(#clipPath2)" stroke="none"/>
<text x="504" xml:space="preserve" y="1089" clip-path="url(#clipPath2)" stroke="none"/>
<text x="504" xml:space="preserve" y="1239" clip-path="url(#clipPath2)" stroke="none"/>
<text x="504" xml:space="preserve" y="1389" clip-path="url(#clipPath2)" stroke="none"/>
<text x="504" xml:space="preserve" y="1539" clip-path="url(#clipPath2)" stroke="none"/>
<text x="654" xml:space="preserve" y="-561" clip-path="url(#clipPath2)" stroke="none"/>
<text x="654" xml:space="preserve" y="-411" clip-path="url(#clipPath2)" stroke="none"/>
<text x="654" xml:space="preserve" y="-261" clip-path="url(#clipPath2)" stroke="none"/>
<text x="654" xml:space="preserve" y="-111" clip-path="url(#clipPath2)" stroke="none"/>
<text x="654" xml:space="preserve" y="39" clip-path="url(#clipPath2)" stroke="none"/>
<text x="654" xml:space="preserve" y="189" clip-path="url(#clipPath2)" stroke="none"/>
<text x="654" xml:space="preserve" y="339" clip-path="url(#clipPath2)" stroke="none"/>
<text x="654" xml:space="preserve" y="489" clip-path="url(#clipPath2)" stroke="none"/>
<text x="654" xml:space="preserve" y="639" clip-path="url(#clipPath2)" stroke="none"/>
<text x="654" xml:space="preserve" y="789" clip-path="url(#clipPath2)" stroke="none"/>
<text x="654" xml:space="preserve" y="939" clip-path="url(#clipPath2)" stroke="none"/>
<text x="654" xml:space="preserve" y="1089" clip-path="url(#clipPath2)" stroke="none"/>
<text x="654" xml:space="preserve" y="1239" clip-path="url(#clipPath2)" stroke="none"/>
<text x="654" xml:space="preserve" y="1389" clip-path="url(#clipPath2)" stroke="none"/>
<text x="654" xml:space="preserve" y="1539" clip-path="url(#clipPath2)" stroke="none"/>
<text x="804" xml:space="preserve" y="-561" clip-path="url(#clipPath2)" stroke="none"/>
<text x="804" xml:space="preserve" y="-411" clip-path="url(#clipPath2)" stroke="none"/>
<text x="804" xml:space="preserve" y="-261" clip-path="url(#clipPath2)" stroke="none"/>
<text x="804" xml:space="preserve" y="-111" clip-path="url(#clipPath2)" stroke="none"/>
<text x="804" xml:space="preserve" y="39" clip-path="url(#clipPath2)" stroke="none"/>
<text x="804" xml:space="preserve" y="189" clip-path="url(#clipPath2)" stroke="none"/>
<text x="804" xml:space="preserve" y="339" clip-path="url(#clipPath2)" stroke="none"/>
<text x="804" xml:space="preserve" y="489" clip-path="url(#clipPath2)" stroke="none"/>
<text x="804" xml:space="preserve" y="639" clip-path="url(#clipPath2)" stroke="none"/>
<text x="804" xml:space="preserve" y="789" clip-path="url(#clipPath2)" stroke="none"/>
<text x="804" xml:space="preserve" y="939" clip-path="url(#clipPath2)" stroke="none"/>
<text x="804" xml:space="preserve" y="1089" clip-path="url(#clipPath2)" stroke="none"/>
<text x="804" xml:space="preserve" y="1239" clip-path="url(#clipPath2)" stroke="none"/>
<text x="804" xml:space="preserve" y="1389" clip-path="url(#clipPath2)" stroke="none"/>
<text x="804" xml:space="preserve" y="1539" clip-path="url(#clipPath2)" stroke="none"/>
<text x="954" xml:space="preserve" y="-561" clip-path="url(#clipPath2)" stroke="none"/>
<text x="954" xml:space="preserve" y="-411" clip-path="url(#clipPath2)" stroke="none"/>
<text x="954" xml:space="preserve" y="-261" clip-path="url(#clipPath2)" stroke="none"/>
<text x="954" xml:space="preserve" y="-111" clip-path="url(#clipPath2)" stroke="none"/>
<text x="954" xml:space="preserve" y="39" clip-path="url(#clipPath2)" stroke="none"/>
<text x="954" xml:space="preserve" y="189" clip-path="url(#clipPath2)" stroke="none"/>
<text x="954" xml:space="preserve" y="339" clip-path="url(#clipPath2)" stroke="none"/>
<text x="954" xml:space="preserve" y="489" clip-path="url(#clipPath2)" stroke="none"/>
<text x="954" xml:space="preserve" y="639" clip-path="url(#clipPath2)" stroke="none"/>
<text x="954" xml:space="preserve" y="789" clip-path="url(#clipPath2)" stroke="none"/>
<text x="954" xml:space="preserve" y="939" clip-path="url(#clipPath2)" stroke="none"/>
<text x="954" xml:space="preserve" y="1089" clip-path="url(#clipPath2)" stroke="none"/>
<text x="954" xml:space="preserve" y="1239" clip-path="url(#clipPath2)" stroke="none"/>
<text x="954" xml:space="preserve" y="1389" clip-path="url(#clipPath2)" stroke="none"/>
<text x="954" xml:space="preserve" y="1539" clip-path="url(#clipPath2)" stroke="none"/>
<text x="1104" xml:space="preserve" y="-561" clip-path="url(#clipPath2)" stroke="none"/>
<text x="1104" xml:space="preserve" y="-411" clip-path="url(#clipPath2)" stroke="none"/>
<text x="1104" xml:space="preserve" y="-261" clip-path="url(#clipPath2)" stroke="none"/>
<text x="1104" xml:space="preserve" y="-111" clip-path="url(#clipPath2)" stroke="none"/>
<text x="1104" xml:space="preserve" y="39" clip-path="url(#clipPath2)" stroke="none"/>
<text x="1104" xml:space="preserve" y="189" clip-path="url(#clipPath2)" stroke="none"/>
<text x="1104" xml:space="preserve" y="339" clip-path="url(#clipPath2)" stroke="none"/>
<text x="1104" xml:space="preserve" y="489" clip-path="url(#clipPath2)" stroke="none"/>
<text x="1104" xml:space="preserve" y="639" clip-path="url(#clipPath2)" stroke="none"/>
<text x="1104" xml:space="preserve" y="789" clip-path="url(#clipPath2)" stroke="none"/>
<text x="1104" xml:space="preserve" y="939" clip-path="url(#clipPath2)" stroke="none"/>
<text x="1104" xml:space="preserve" y="1089" clip-path="url(#clipPath2)" stroke="none"/>
<text x="1104" xml:space="preserve" y="1239" clip-path="url(#clipPath2)" stroke="none"/>
<text x="1104" xml:space="preserve" y="1389" clip-path="url(#clipPath2)" stroke="none"/>
<text x="1104" xml:space="preserve" y="1539" clip-path="url(#clipPath2)" stroke="none"/>
</g>
<g font-family="'Arial'" font-size="13">
<text x="344 353 356 360 367 374 382 389 396 408 415 422 430 437 445" xml:space="preserve" y="60" stroke="none">Firstpageheader</text>
<text x="403" xml:space="preserve" y="1060" clip-path="url(#clipPath1)" stroke="none">1</text>
<text x="94 107 121 138 157 169 178" font-size="21" y="131" font-family="'Cambria'" stroke="none" font-weight="bold" xml:space="preserve">PHPWord</text>
<text x="95 104 113 122 134 142 146 158 161 171 182 189 197 201 213 221 231 244 247 249 257 261 269 273 284 287 295 303 307 315 322 330 332 340 351 358 366 377 386 391 394 398 400 408 419 432 439 443 451 458 469 478 487 494 501 509 520 529 537 550 554 557 559 567 573 580 589 597 599 610 614 617 619 631 633 644 647 655" xml:space="preserve" y="154" stroke="none">PHPWordisapurePHPlibraryforreadingandwritingWord,ODT,andRTFfiles.Thisfileisthe</text>
<text x="94 102 110 118 123 131 142 147 150 154" y="170" fill="red" stroke="none" font-weight="bold" xml:space="preserve">sourcefile</text>
<text x="165 169 180 183 191 198 205 209 216 227 232 239 246 254 258 267 272 275 278 290 296 303 311 318 326 329 332 335 338 346 356 364" xml:space="preserve" y="170" stroke="none">totesttheread/writecapabilitesof</text>
<text fill="blue" x="371 380 390 398 411 418 423" xml:space="preserve" y="170" stroke="none">PHPWord</text>
<line clip-path="url(#clipPath1)" fill="none" text-rendering="optimizeSpeed" x1="371" x2="430" y1="172" y2="172" stroke="blue"/>
<text x="430" xml:space="preserve" y="170" clip-path="url(#clipPath1)" stroke="none">.</text>
<text x="95 104 113 122 134 142 146 158 164 172 183 190 197 205 208 218 222 229 237 244 248 255 259 271 279 282 293 299 307 313 324 332" xml:space="preserve" y="235" stroke="none">PHPWordcanapplyfontformatssuchas</text>
<text x="342 354 365 384 400 410 422 441 450 457 468" font-size="24" y="235" font-family="'Times New Roman'" stroke="none" xml:space="preserve">nameandsize</text>
<text x="478" xml:space="preserve" y="235" clip-path="url(#clipPath1)" stroke="none">,</text>
<text x="485 493 502 505" xml:space="preserve" y="235" font-weight="bold" stroke="none">bold</text>
<text x="514" xml:space="preserve" y="235" clip-path="url(#clipPath1)" stroke="none">,</text>
<text font-style="italic" x="521 524 528 536 538 541 548" xml:space="preserve" y="235" stroke="none">italics</text>
<text x="555" xml:space="preserve" y="235" clip-path="url(#clipPath1)" stroke="none">,</text>
<text fill="rgb(0,176,80)" x="562 568 576 579 586" xml:space="preserve" y="235" stroke="none">color</text>
<text x="591 598 605 613 620 628 633 636 638 645 653" xml:space="preserve" y="235" stroke="none">,underline,</text>
</g>
<g text-rendering="optimizeSpeed" stroke-width="0.76" font-size="13" stroke-dasharray="8,4" font-family="'Arial'" stroke-linecap="butt">
<line y2="236" fill="none" x1="599" clip-path="url(#clipPath1)" x2="652" y1="236"/>
</g>
<g fill="yellow" text-rendering="optimizeSpeed" font-size="13" font-family="'Arial'" stroke="yellow">
<rect x="560" width="64" height="16" y="242" clip-path="url(#clipPath1)" stroke="none"/>
<text x="95 101 105 110 112 119 127 130 137 142 149 157 164 172 179 186 194 201 209 212 223 230 233 238 241 247 255 258 266 270 277 285 292 300" y="255" fill="black" text-rendering="auto" stroke="none" xml:space="preserve">strikethrough,doublestrikethrough,</text>
<line clip-path="url(#clipPath1)" fill="none" x1="95" x2="174" y1="251" y2="251" stroke="black"/>
<line clip-path="url(#clipPath1)" fill="none" x1="180" x2="302" y1="250" y2="250" stroke="black"/>
<line clip-path="url(#clipPath1)" fill="none" x1="180" x2="302" y1="252" y2="252" stroke="black"/>
<text x="307" y="255" transform="matrix(0.8,0,0,0.8,61.4,51)" clip-path="url(#clipPath3)" fill="black" text-rendering="auto" stroke="none" xml:space="preserve">S</text>
</g>
<g font-family="'Arial'" font-size="13" transform="matrix(0.8,0,0,0.8,63,51)">
<text x="315" xml:space="preserve" y="255" clip-path="url(#clipPath4)" stroke="none">M</text>
</g>
<g font-family="'Arial'" font-size="13" transform="matrix(0.8,0,0,0.8,64.6,51)">
<text x="323" xml:space="preserve" y="255" clip-path="url(#clipPath5)" stroke="none">A</text>
</g>
<g font-family="'Arial'" font-size="13" transform="matrix(0.8,0,0,0.8,66.2,51)">
<text x="331" xml:space="preserve" y="255" clip-path="url(#clipPath6)" stroke="none">L</text>
</g>
<g font-family="'Arial'" font-size="13" transform="matrix(0.8,0,0,0.8,67.4,51)">
<text x="337" xml:space="preserve" y="255" clip-path="url(#clipPath7)" stroke="none">L</text>
</g>
<g font-family="'Arial'" font-size="13" transform="matrix(0.8,0,0,0.8,69,51)">
<text x="345" xml:space="preserve" y="255" clip-path="url(#clipPath8)" stroke="none">C</text>
</g>
<g font-family="'Arial'" font-size="13" transform="matrix(0.8,0,0,0.8,70.4,51)">
<text x="352" xml:space="preserve" y="255" clip-path="url(#clipPath9)" stroke="none">A</text>
</g>
<g font-family="'Arial'" font-size="13" transform="matrix(0.8,0,0,0.8,72,51)">
<text x="360" xml:space="preserve" y="255" clip-path="url(#clipPath10)" stroke="none">P</text>
</g>
<g font-family="'Arial'" font-size="13" transform="matrix(0.8,0,0,0.8,73.4,51)">
<text x="367" xml:space="preserve" y="255" clip-path="url(#clipPath11)" stroke="none">S</text>
</g>
<g font-family="'Arial'" font-size="13">
<text x="374 382 390 398 409 419 428 437 446" xml:space="preserve" y="255" stroke="none">,ALLCAPS,</text>
<text x="453" xml:space="preserve" y="257" clip-path="url(#clipPath12)" transform="matrix(0.6499,0,0,0.6499,158.5942,89.9751)" stroke="none">s</text>
</g>
<g font-family="'Arial'" font-size="13" transform="matrix(0.6499,0,0,0.6499,159.9946,89.9751)">
<text x="457" xml:space="preserve" y="257" clip-path="url(#clipPath13)" stroke="none">u</text>
</g>
<g font-family="'Arial'" font-size="13" transform="matrix(0.6499,0,0,0.6499,161.7451,89.9751)">
<text x="462" xml:space="preserve" y="257" clip-path="url(#clipPath14)" stroke="none">b</text>
</g>
<g font-family="'Arial'" font-size="13" transform="matrix(0.6499,0,0,0.6499,163.4956,89.9751)">
<text x="467" xml:space="preserve" y="257" clip-path="url(#clipPath15)" stroke="none">s</text>
</g>
<g font-family="'Arial'" font-size="13" transform="matrix(0.6499,0,0,0.6499,164.896,89.9751)">
<text x="471" xml:space="preserve" y="257" clip-path="url(#clipPath16)" stroke="none">c</text>
</g>
<g font-family="'Arial'" font-size="13" transform="matrix(0.6499,0,0,0.6499,166.6465,89.9751)">
<text x="476" xml:space="preserve" y="257" clip-path="url(#clipPath17)" stroke="none">r</text>
</g>
<g font-family="'Arial'" font-size="13" transform="matrix(0.6499,0,0,0.6499,167.6968,89.9751)">
<text x="479" xml:space="preserve" y="257" clip-path="url(#clipPath18)" stroke="none">i</text>
</g>
<g font-family="'Arial'" font-size="13" transform="matrix(0.6499,0,0,0.6499,168.397,89.9751)">
<text x="481" xml:space="preserve" y="257" clip-path="url(#clipPath19)" stroke="none">p</text>
</g>
<g font-family="'Arial'" font-size="13" transform="matrix(0.6499,0,0,0.6499,169.7974,89.9751)">
<text x="485" xml:space="preserve" y="257" clip-path="url(#clipPath20)" stroke="none">t</text>
</g>
<g font-family="'Arial'" font-size="13">
<text x="488" xml:space="preserve" y="255" clip-path="url(#clipPath1)" stroke="none">,</text>
<text x="495" xml:space="preserve" y="251" clip-path="url(#clipPath21)" transform="matrix(0.6499,0,0,0.6499,173.2983,87.8745)" stroke="none">s</text>
</g>
<g font-family="'Arial'" font-size="13" transform="matrix(0.6499,0,0,0.6499,175.0488,87.8745)">
<text x="500" xml:space="preserve" y="251" clip-path="url(#clipPath22)" stroke="none">u</text>
</g>
<g font-family="'Arial'" font-size="13" transform="matrix(0.6499,0,0,0.6499,176.4492,87.8745)">
<text x="504" xml:space="preserve" y="251" clip-path="url(#clipPath23)" stroke="none">p</text>
</g>
<g font-family="'Arial'" font-size="13" transform="matrix(0.6499,0,0,0.6499,178.1997,87.8745)">
<text x="509" xml:space="preserve" y="251" clip-path="url(#clipPath24)" stroke="none">e</text>
</g>
<g font-family="'Arial'" font-size="13" transform="matrix(0.6499,0,0,0.6499,179.9502,87.8745)">
<text x="514" xml:space="preserve" y="251" clip-path="url(#clipPath25)" stroke="none">r</text>
</g>
<g font-family="'Arial'" font-size="13" transform="matrix(0.6499,0,0,0.6499,180.6504,87.8745)">
<text x="516" xml:space="preserve" y="251" clip-path="url(#clipPath26)" stroke="none">s</text>
</g>
<g font-family="'Arial'" font-size="13" transform="matrix(0.6499,0,0,0.6499,182.4009,87.8745)">
<text x="521" xml:space="preserve" y="251" clip-path="url(#clipPath27)" stroke="none">c</text>
</g>
<g font-family="'Arial'" font-size="13" transform="matrix(0.6499,0,0,0.6499,184.1514,87.8745)">
<text x="526" xml:space="preserve" y="251" clip-path="url(#clipPath28)" stroke="none">r</text>
</g>
<g font-family="'Arial'" font-size="13" transform="matrix(0.6499,0,0,0.6499,185.2017,87.8745)">
<text x="529" xml:space="preserve" y="251" clip-path="url(#clipPath29)" stroke="none">i</text>
</g>
<g font-family="'Arial'" font-size="13" transform="matrix(0.6499,0,0,0.6499,185.5518,87.8745)">
<text x="530" xml:space="preserve" y="251" clip-path="url(#clipPath30)" stroke="none">p</text>
</g>
<g font-family="'Arial'" font-size="13" transform="matrix(0.6499,0,0,0.6499,187.3022,87.8745)">
<text x="535" xml:space="preserve" y="251" clip-path="url(#clipPath31)" stroke="none">t</text>
</g>
<g font-family="'Arial'" font-size="13">
<text x="537 545 552 560 568 570 578 586 589 591 599 606 610 617 625 632 641 648 659 671 678" xml:space="preserve" y="255" stroke="none">,orhighlighted.Youmay</text>
<text x="94 102 105 111 123 130 138 142 144 151 162 166 173 181 188 192 199 206 211 219 221 232 239 246 258 261 269 276 283 290 295 302 310 320 324 331 343 350 354 364 372 379 383 391 398 403 410 418 425 433 441 448 452 459 463 475 478 486 489 499 506 514 525 529 536 544 551 558 565 576 584 595 601 606 613 621 624 632 643 651 653 660 671 679" xml:space="preserve" y="271" stroke="none">alsonoticethatthere’sonetextbreak(emptyparagraph)beforethisonethatcanbecreatedalsoby</text>
<text x="95 104 113 122 134 142 146" xml:space="preserve" y="288" stroke="none">PHPWord</text>
<text x="158" xml:space="preserve" y="284" clip-path="url(#clipPath32)" transform="matrix(0.6499,0,0,0.6499,55.3154,99.4277)" stroke="none">i</text>
</g>
<g font-family="'Arial'" font-size="13">
<text x="160" xml:space="preserve" y="288" clip-path="url(#clipPath1)" stroke="none">.</text>
<text x="95 104 113 122 134 142 146 159 165 173 185 193 196 202 215 219 226 230 241 249 258 265 272 277 284 292 296 304 311 324 330 338 344 357 364 376 379 387 390 402 405 412 419 423 426 430 432 439 447 456 463 470 478 487 494 502 505 512 517 529 537 544 557 564 571 579 588 595 599 602 610 620 630 632 636 648 656 659 672 675 678 685 693" xml:space="preserve" y="328" stroke="none">PHPWordcanalsoformatparagraphsuchasthisjustified,12ptbeforeand12ptafterwith1.5lines</text>
<text x="95 101 109 116 123 126 133 145 152 160 164 172 179 183 191 198 206 214 222 230 233 244 247 255 259 270 278 282 286 288 295 308 314 321 333 341 353 360 367 375 378 381 388 401 403 411 414 416 424 436 443 452 460 467 469 476 488 496 500 508 515 523 527 529 537 544 556 563 566 573 576 588 595 607 616 628 636 642 654 658 669 677 689 692" xml:space="preserve" y="352" stroke="none">spacingparagraph.Thisformattingcanbeappliedinlineorusingpredefinedstyleasweusetodoin</text>
<text x="95 107 114 119 127" xml:space="preserve" y="375" stroke="none">Word.</text>
<text x="95 104 113 122 134 142 146 158 164 172 183 191 193 200 211 217 222 229 237 240 251 263 271 273 277 280 286 294 297 304 315" xml:space="preserve" y="414" stroke="none">PHPWordcanalsocreatemulticolumn</text>
<text x="94 102 109 114 121 129 133 140 148 159 169 177 179 186 197 200 210 214 218 226 233 237 244 255 263 273 284 292 299 313 319 327 333 337 340 347" xml:space="preserve" y="430" stroke="none">paragraphwhichistreatedasanewsection</text>
<text x="95 105 107 111 122 129 136 144 148 150 157 165 173 183 190 194 202 210 220 224 230 237 245 252 265 276 283 290 301 309 316 320 323 330" xml:space="preserve" y="447" stroke="none">withcontinousbreaktype.Wecandefine</text>
<text x="421 429 431 435 442 450 458 462 469 480 487 495 506 513 521 529 537 544 550 558 561 568 579 587 597 605 613 619 627 634 641 644 651" xml:space="preserve" y="414" stroke="none">eitherthenumberofcolumnsorspacing</text>
<text x="421 428 436 440 449 456 464 475 479 486 497 504 512 514 521 533 540 547" xml:space="preserve" y="430" stroke="none">betweenthecolumns.</text>
</g>
<g font-style="italic" font-size="19" font-weight="bold" font-family="'Cambria'">
<text x="94 104 109 117 124" xml:space="preserve" y="501" stroke="none">Lists</text>
</g>
<g font-family="'Arial'" font-size="13">
<text x="95 104 113 122 134 142 146 158 164 172 183 189 194 201 209 212 223 231 239 242 244 252 255 263 274 277 280 287 290 301" xml:space="preserve" y="524" stroke="none">PHPWordcancreatebulletedlists…</text>
<path d="M123.3125 548.3438 Q123.3125 549.2969 122.6328 549.9766 Q121.9531 550.6562 121 550.6562 Q120.0312 550.6562 119.3516 549.9766 Q118.6719 549.2969 118.6719 548.3438 Q118.6719 547.375 119.3516 546.6953 Q120.0312 546.0156 121 546.0156 Q121.9531 546.0156 122.6328 546.6953 Q123.3125 547.375 123.3125 548.3438 Z" clip-path="url(#clipPath1)" stroke="none"/>
<text x="142 151 159 161 169 176" xml:space="preserve" y="552" stroke="none">Point1</text>
<path d="M123.3125 576.3438 Q123.3125 577.2969 122.6328 577.9766 Q121.9531 578.6562 121 578.6562 Q120.0312 578.6562 119.3516 577.9766 Q118.6719 577.2969 118.6719 576.3438 Q118.6719 575.375 119.3516 574.6953 Q120.0312 574.0156 121 574.0156 Q121.9531 574.0156 122.6328 574.6953 Q123.3125 575.375 123.3125 576.3438 Z" clip-path="url(#clipPath1)" stroke="none"/>
<text x="142 151 159 161 169 176" xml:space="preserve" y="580" stroke="none">Point2</text>
<text x="95 111 118 126 137 144 151 163 170 178 182 189 201 204 207 213 217 227 231 238 246" xml:space="preserve" y="607" stroke="none">…andnumberedliststoo.</text>
<text x="118 126 142 152 159" xml:space="preserve" y="635" stroke="none">1.One</text>
<text x="118 126 141 150 159" xml:space="preserve" y="662" stroke="none">2.Two</text>
<text x="118 126 141 150 157 162 169" xml:space="preserve" y="689" stroke="none">3.Three</text>
</g>
<g font-style="italic" font-size="19" font-weight="bold" font-family="'Cambria'">
<text x="95 105 116 125 131 139" xml:space="preserve" y="727" stroke="none">Tables</text>
</g>
<g font-family="'Arial'" font-size="13">
<text x="94 103 110 118 120 128 138 146 150 161 169 172 178 189 197 204 211 221 225 236 243 254 266 273 280 292 299 309 317 324 326 334 345 354 364 373 385 392 397 405" xml:space="preserve" y="749" stroke="none">TablesarealsoeasytobemadebyusingPHPWord.</text>
<text x="184" xml:space="preserve" y="792" clip-path="url(#clipPath33)" stroke="none">A</text>
<text x="193" xml:space="preserve" y="788" clip-path="url(#clipPath34)" transform="matrix(0.6499,0,0,0.6499,67.5688,275.877)" stroke="none">1</text>
</g>
<g font-family="'Arial'" font-size="13" text-rendering="optimizeSpeed">
<rect x="87" width="206" height="1" y="764" clip-path="url(#clipPath1)" stroke="none"/>
<rect x="86" width="1" height="27" y="765" clip-path="url(#clipPath1)" stroke="none"/>
<rect x="86" width="1" height="1" y="792" clip-path="url(#clipPath1)" stroke="none"/>
<rect x="86" width="1" height="1" y="764" clip-path="url(#clipPath1)" stroke="none"/>
<text text-rendering="auto" x="494" xml:space="preserve" y="778" clip-path="url(#clipPath35)" stroke="none">B</text>
<text x="502" y="774" transform="matrix(0.6499,0,0,0.6499,175.749,270.9756)" clip-path="url(#clipPath36)" text-rendering="auto" stroke="none" xml:space="preserve">2</text>
</g>
<g font-family="'Arial'" font-size="13" text-rendering="optimizeSpeed">
<rect x="294" width="205" height="1" y="764" clip-path="url(#clipPath1)" stroke="none"/>
<rect x="293" width="1" height="27" y="765" clip-path="url(#clipPath1)" stroke="none"/>
<rect x="293" width="1" height="1" y="764" clip-path="url(#clipPath1)" stroke="none"/>
<rect x="500" width="205" height="1" y="764" clip-path="url(#clipPath1)" stroke="none"/>
<rect x="705" width="1" height="27" y="765" clip-path="url(#clipPath1)" stroke="none"/>
<rect x="705" width="1" height="1" y="764" clip-path="url(#clipPath1)" stroke="none"/>
<rect x="499" width="1" height="1" y="764" clip-path="url(#clipPath1)" stroke="none"/>
<rect x="86" width="1" height="27" y="793" clip-path="url(#clipPath1)" stroke="none"/>
<rect x="87" width="206" height="1" y="820" clip-path="url(#clipPath1)" stroke="none"/>
<rect x="86" width="1" height="1" y="820" clip-path="url(#clipPath1)" stroke="none"/>
<rect x="86" width="1" height="1" y="792" clip-path="url(#clipPath1)" stroke="none"/>
<text text-rendering="auto" x="301 507" xml:space="preserve" y="806" stroke="none">CD</text>
<rect x="294" width="205" height="1" y="792" clip-path="url(#clipPath1)" stroke="none"/>
<rect x="293" width="1" height="27" y="793" clip-path="url(#clipPath1)" stroke="none"/>
<rect x="294" width="205" height="1" y="820" clip-path="url(#clipPath1)" stroke="none"/>
<rect x="293" width="1" height="1" y="820" clip-path="url(#clipPath1)" stroke="none"/>
<rect x="293" width="1" height="1" y="792" clip-path="url(#clipPath1)" stroke="none"/>
<rect x="500" width="205" height="1" y="792" clip-path="url(#clipPath1)" stroke="none"/>
<rect x="499" width="1" height="27" y="793" clip-path="url(#clipPath1)" stroke="none"/>
<rect x="500" width="205" height="1" y="820" clip-path="url(#clipPath1)" stroke="none"/>
<rect x="705" width="1" height="27" y="793" clip-path="url(#clipPath1)" stroke="none"/>
<rect x="705" width="1" height="1" y="792" clip-path="url(#clipPath1)" stroke="none"/>
<rect x="705" width="1" height="1" y="820" clip-path="url(#clipPath1)" stroke="none"/>
<rect x="499" width="1" height="1" y="820" clip-path="url(#clipPath1)" stroke="none"/>
<rect x="499" width="1" height="1" y="792" clip-path="url(#clipPath1)" stroke="none"/>
<line clip-path="url(#clipPath1)" fill="none" x1="94" x2="286" y1="989" y2="989" stroke="silver"/>
<text x="95" y="1001" transform="matrix(0.6499,0,0,0.6499,33.2593,350.4478)" clip-path="url(#clipPath38)" text-rendering="auto" stroke="none" xml:space="preserve">1</text>
</g>
<g font-family="'Arial'" font-size="13">
<text x="103 113 120 130 136 144 151" xml:space="preserve" y="1005" stroke="none">Rowspan</text>
<text x="95" xml:space="preserve" y="1028" clip-path="url(#clipPath39)" transform="matrix(0.6499,0,0,0.6499,33.2593,359.9004)" stroke="none">2</text>
</g>
<g font-family="'Arial'" font-size="13">
<text x="103 113 121 123 130 137 144" xml:space="preserve" y="1032" stroke="none">Colspan</text>
</g>
</g>
</svg>
