<?xml version="1.0" encoding="UTF-8"?><svg fill-opacity="1" color-rendering="auto" color-interpolation="auto" text-rendering="auto" stroke="black" stroke-linecap="square" stroke-miterlimit="10" shape-rendering="auto" stroke-opacity="1" fill="black" preserveAspectRatio="xMinYMin meet" stroke-dasharray="none" font-weight="normal" stroke-width="1" viewBox="0 0 793 1122" font-family="'Dialog'" font-style="normal" stroke-linejoin="miter" font-size="12" stroke-dashoffset="0" image-rendering="auto" xmlns="http://www.w3.org/2000/svg">
<!--Generated by the Batik Graphics2D SVG Generator-->
<defs id="genericDefs"/>
<g>
<defs id="defs1">
<clipPath clipPathUnits="userSpaceOnUse" id="clipPath1">
<path d="M0 0 L793 0 L793 1122 L0 1122 L0 0 Z"/>
</clipPath>
<clipPath clipPathUnits="userSpaceOnUse" id="clipPath2">
<path d="M512.6726 -115.7012 L1073.4083 445.0345 L280.0345 1238.4083 L-280.7012 677.6726 L512.6726 -115.7012 Z"/>
</clipPath>
<clipPath clipPathUnits="userSpaceOnUse" id="clipPath3">
<path d="M81 0 L81 250 L259 250 L259 0 Z"/>
</clipPath>
<clipPath clipPathUnits="userSpaceOnUse" id="clipPath4">
<path d="M260 0 L260 250 L643 250 L643 0 Z"/>
</clipPath>
<clipPath clipPathUnits="userSpaceOnUse" id="clipPath5">
<path d="M87 0 L87 366 L291 366 L291 0 Z"/>
</clipPath>
<clipPath clipPathUnits="userSpaceOnUse" id="clipPath6">
<path d="M292 0 L292 347 L496 347 L496 0 Z"/>
</clipPath>
<clipPath clipPathUnits="userSpaceOnUse" id="clipPath7">
<path d="M292 0 L292 366 L496 366 L496 0 Z"/>
</clipPath>
</defs>
<g font-size="100" transform="translate(396,561) rotate(-45) translate(-396,-561)">
<text x="-396" xml:space="preserve" y="-561" clip-path="url(#clipPath2)" stroke="none"/>
<text x="-396" xml:space="preserve" y="-411" clip-path="url(#clipPath2)" stroke="none"/>
<text x="-396" xml:space="preserve" y="-261" clip-path="url(#clipPath2)" stroke="none"/>
<text x="-396" xml:space="preserve" y="-111" clip-path="url(#clipPath2)" stroke="none"/>
<text x="-396" xml:space="preserve" y="39" clip-path="url(#clipPath2)" stroke="none"/>
<text x="-396" xml:space="preserve" y="189" clip-path="url(#clipPath2)" stroke="none"/>
<text x="-396" xml:space="preserve" y="339" clip-path="url(#clipPath2)" stroke="none"/>
<text x="-396" xml:space="preserve" y="489" clip-path="url(#clipPath2)" stroke="none"/>
<text x="-396" xml:space="preserve" y="639" clip-path="url(#clipPath2)" stroke="none"/>
<text x="-396" xml:space="preserve" y="789" clip-path="url(#clipPath2)" stroke="none"/>
<text x="-396" xml:space="preserve" y="939" clip-path="url(#clipPath2)" stroke="none"/>
<text x="-396" xml:space="preserve" y="1089" clip-path="url(#clipPath2)" stroke="none"/>
<text x="-396" xml:space="preserve" y="1239" clip-path="url(#clipPath2)" stroke="none"/>
<text x="-396" xml:space="preserve" y="1389" clip-path="url(#clipPath2)" stroke="none"/>
<text x="-396" xml:space="preserve" y="1539" clip-path="url(#clipPath2)" stroke="none"/>
<text x="-246" xml:space="preserve" y="-561" clip-path="url(#clipPath2)" stroke="none"/>
<text x="-246" xml:space="preserve" y="-411" clip-path="url(#clipPath2)" stroke="none"/>
<text x="-246" xml:space="preserve" y="-261" clip-path="url(#clipPath2)" stroke="none"/>
<text x="-246" xml:space="preserve" y="-111" clip-path="url(#clipPath2)" stroke="none"/>
<text x="-246" xml:space="preserve" y="39" clip-path="url(#clipPath2)" stroke="none"/>
<text x="-246" xml:space="preserve" y="189" clip-path="url(#clipPath2)" stroke="none"/>
<text x="-246" xml:space="preserve" y="339" clip-path="url(#clipPath2)" stroke="none"/>
<text x="-246" xml:space="preserve" y="489" clip-path="url(#clipPath2)" stroke="none"/>
<text x="-246" xml:space="preserve" y="639" clip-path="url(#clipPath2)" stroke="none"/>
<text x="-246" xml:space="preserve" y="789" clip-path="url(#clipPath2)" stroke="none"/>
<text x="-246" xml:space="preserve" y="939" clip-path="url(#clipPath2)" stroke="none"/>
<text x="-246" xml:space="preserve" y="1089" clip-path="url(#clipPath2)" stroke="none"/>
<text x="-246" xml:space="preserve" y="1239" clip-path="url(#clipPath2)" stroke="none"/>
<text x="-246" xml:space="preserve" y="1389" clip-path="url(#clipPath2)" stroke="none"/>
<text x="-246" xml:space="preserve" y="1539" clip-path="url(#clipPath2)" stroke="none"/>
<text x="-96" xml:space="preserve" y="-561" clip-path="url(#clipPath2)" stroke="none"/>
<text x="-96" xml:space="preserve" y="-411" clip-path="url(#clipPath2)" stroke="none"/>
<text x="-96" xml:space="preserve" y="-261" clip-path="url(#clipPath2)" stroke="none"/>
<text x="-96" xml:space="preserve" y="-111" clip-path="url(#clipPath2)" stroke="none"/>
<text x="-96" xml:space="preserve" y="39" clip-path="url(#clipPath2)" stroke="none"/>
<text x="-96" xml:space="preserve" y="189" clip-path="url(#clipPath2)" stroke="none"/>
<text x="-96" xml:space="preserve" y="339" clip-path="url(#clipPath2)" stroke="none"/>
<text x="-96" xml:space="preserve" y="489" clip-path="url(#clipPath2)" stroke="none"/>
<text x="-96" xml:space="preserve" y="639" clip-path="url(#clipPath2)" stroke="none"/>
<text x="-96" xml:space="preserve" y="789" clip-path="url(#clipPath2)" stroke="none"/>
<text x="-96" xml:space="preserve" y="939" clip-path="url(#clipPath2)" stroke="none"/>
<text x="-96" xml:space="preserve" y="1089" clip-path="url(#clipPath2)" stroke="none"/>
<text x="-96" xml:space="preserve" y="1239" clip-path="url(#clipPath2)" stroke="none"/>
<text x="-96" xml:space="preserve" y="1389" clip-path="url(#clipPath2)" stroke="none"/>
<text x="-96" xml:space="preserve" y="1539" clip-path="url(#clipPath2)" stroke="none"/>
<text x="54" xml:space="preserve" y="-561" clip-path="url(#clipPath2)" stroke="none"/>
<text x="54" xml:space="preserve" y="-411" clip-path="url(#clipPath2)" stroke="none"/>
<text x="54" xml:space="preserve" y="-261" clip-path="url(#clipPath2)" stroke="none"/>
<text x="54" xml:space="preserve" y="-111" clip-path="url(#clipPath2)" stroke="none"/>
<text x="54" xml:space="preserve" y="39" clip-path="url(#clipPath2)" stroke="none"/>
<text x="54" xml:space="preserve" y="189" clip-path="url(#clipPath2)" stroke="none"/>
<text x="54" xml:space="preserve" y="339" clip-path="url(#clipPath2)" stroke="none"/>
<text x="54" xml:space="preserve" y="489" clip-path="url(#clipPath2)" stroke="none"/>
<text x="54" xml:space="preserve" y="639" clip-path="url(#clipPath2)" stroke="none"/>
<text x="54" xml:space="preserve" y="789" clip-path="url(#clipPath2)" stroke="none"/>
<text x="54" xml:space="preserve" y="939" clip-path="url(#clipPath2)" stroke="none"/>
<text x="54" xml:space="preserve" y="1089" clip-path="url(#clipPath2)" stroke="none"/>
<text x="54" xml:space="preserve" y="1239" clip-path="url(#clipPath2)" stroke="none"/>
<text x="54" xml:space="preserve" y="1389" clip-path="url(#clipPath2)" stroke="none"/>
<text x="54" xml:space="preserve" y="1539" clip-path="url(#clipPath2)" stroke="none"/>
<text x="204" xml:space="preserve" y="-561" clip-path="url(#clipPath2)" stroke="none"/>
<text x="204" xml:space="preserve" y="-411" clip-path="url(#clipPath2)" stroke="none"/>
<text x="204" xml:space="preserve" y="-261" clip-path="url(#clipPath2)" stroke="none"/>
<text x="204" xml:space="preserve" y="-111" clip-path="url(#clipPath2)" stroke="none"/>
<text x="204" xml:space="preserve" y="39" clip-path="url(#clipPath2)" stroke="none"/>
<text x="204" xml:space="preserve" y="189" clip-path="url(#clipPath2)" stroke="none"/>
<text x="204" xml:space="preserve" y="339" clip-path="url(#clipPath2)" stroke="none"/>
<text x="204" xml:space="preserve" y="489" clip-path="url(#clipPath2)" stroke="none"/>
<text x="204" xml:space="preserve" y="639" clip-path="url(#clipPath2)" stroke="none"/>
<text x="204" xml:space="preserve" y="789" clip-path="url(#clipPath2)" stroke="none"/>
<text x="204" xml:space="preserve" y="939" clip-path="url(#clipPath2)" stroke="none"/>
<text x="204" xml:space="preserve" y="1089" clip-path="url(#clipPath2)" stroke="none"/>
<text x="204" xml:space="preserve" y="1239" clip-path="url(#clipPath2)" stroke="none"/>
<text x="204" xml:space="preserve" y="1389" clip-path="url(#clipPath2)" stroke="none"/>
<text x="204" xml:space="preserve" y="1539" clip-path="url(#clipPath2)" stroke="none"/>
<text x="354" xml:space="preserve" y="-561" clip-path="url(#clipPath2)" stroke="none"/>
<text x="354" xml:space="preserve" y="-411" clip-path="url(#clipPath2)" stroke="none"/>
<text x="354" xml:space="preserve" y="-261" clip-path="url(#clipPath2)" stroke="none"/>
<text x="354" xml:space="preserve" y="-111" clip-path="url(#clipPath2)" stroke="none"/>
<text x="354" xml:space="preserve" y="39" clip-path="url(#clipPath2)" stroke="none"/>
<text x="354" xml:space="preserve" y="189" clip-path="url(#clipPath2)" stroke="none"/>
<text x="354" xml:space="preserve" y="339" clip-path="url(#clipPath2)" stroke="none"/>
<text x="354" xml:space="preserve" y="489" clip-path="url(#clipPath2)" stroke="none"/>
<text x="354" xml:space="preserve" y="639" clip-path="url(#clipPath2)" stroke="none"/>
<text x="354" xml:space="preserve" y="789" clip-path="url(#clipPath2)" stroke="none"/>
<text x="354" xml:space="preserve" y="939" clip-path="url(#clipPath2)" stroke="none"/>
<text x="354" xml:space="preserve" y="1089" clip-path="url(#clipPath2)" stroke="none"/>
<text x="354" xml:space="preserve" y="1239" clip-path="url(#clipPath2)" stroke="none"/>
<text x="354" xml:space="preserve" y="1389" clip-path="url(#clipPath2)" stroke="none"/>
<text x="354" xml:space="preserve" y="1539" clip-path="url(#clipPath2)" stroke="none"/>
<text x="504" xml:space="preserve" y="-561" clip-path="url(#clipPath2)" stroke="none"/>
<text x="504" xml:space="preserve" y="-411" clip-path="url(#clipPath2)" stroke="none"/>
<text x="504" xml:space="preserve" y="-261" clip-path="url(#clipPath2)" stroke="none"/>
<text x="504" xml:space="preserve" y="-111" clip-path="url(#clipPath2)" stroke="none"/>
<text x="504" xml:space="preserve" y="39" clip-path="url(#clipPath2)" stroke="none"/>
<text x="504" xml:space="preserve" y="189" clip-path="url(#clipPath2)" stroke="none"/>
<text x="504" xml:space="preserve" y="339" clip-path="url(#clipPath2)" stroke="none"/>
<text x="504" xml:space="preserve" y="489" clip-path="url(#clipPath2)" stroke="none"/>
<text x="504" xml:space="preserve" y="639" clip-path="url(#clipPath2)" stroke="none"/>
<text x="504" xml:space="preserve" y="789" clip-path="url(#clipPath2)" stroke="none"/>
<text x="504" xml:space="preserve" y="939" clip-path="url(#clipPath2)" stroke="none"/>
<text x="504" xml:space="preserve" y="1089" clip-path="url(#clipPath2)" stroke="none"/>
<text x="504" xml:space="preserve" y="1239" clip-path="url(#clipPath2)" stroke="none"/>
<text x="504" xml:space="preserve" y="1389" clip-path="url(#clipPath2)" stroke="none"/>
<text x="504" xml:space="preserve" y="1539" clip-path="url(#clipPath2)" stroke="none"/>
<text x="654" xml:space="preserve" y="-561" clip-path="url(#clipPath2)" stroke="none"/>
<text x="654" xml:space="preserve" y="-411" clip-path="url(#clipPath2)" stroke="none"/>
<text x="654" xml:space="preserve" y="-261" clip-path="url(#clipPath2)" stroke="none"/>
<text x="654" xml:space="preserve" y="-111" clip-path="url(#clipPath2)" stroke="none"/>
<text x="654" xml:space="preserve" y="39" clip-path="url(#clipPath2)" stroke="none"/>
<text x="654" xml:space="preserve" y="189" clip-path="url(#clipPath2)" stroke="none"/>
<text x="654" xml:space="preserve" y="339" clip-path="url(#clipPath2)" stroke="none"/>
<text x="654" xml:space="preserve" y="489" clip-path="url(#clipPath2)" stroke="none"/>
<text x="654" xml:space="preserve" y="639" clip-path="url(#clipPath2)" stroke="none"/>
<text x="654" xml:space="preserve" y="789" clip-path="url(#clipPath2)" stroke="none"/>
<text x="654" xml:space="preserve" y="939" clip-path="url(#clipPath2)" stroke="none"/>
<text x="654" xml:space="preserve" y="1089" clip-path="url(#clipPath2)" stroke="none"/>
<text x="654" xml:space="preserve" y="1239" clip-path="url(#clipPath2)" stroke="none"/>
<text x="654" xml:space="preserve" y="1389" clip-path="url(#clipPath2)" stroke="none"/>
<text x="654" xml:space="preserve" y="1539" clip-path="url(#clipPath2)" stroke="none"/>
<text x="804" xml:space="preserve" y="-561" clip-path="url(#clipPath2)" stroke="none"/>
<text x="804" xml:space="preserve" y="-411" clip-path="url(#clipPath2)" stroke="none"/>
<text x="804" xml:space="preserve" y="-261" clip-path="url(#clipPath2)" stroke="none"/>
<text x="804" xml:space="preserve" y="-111" clip-path="url(#clipPath2)" stroke="none"/>
<text x="804" xml:space="preserve" y="39" clip-path="url(#clipPath2)" stroke="none"/>
<text x="804" xml:space="preserve" y="189" clip-path="url(#clipPath2)" stroke="none"/>
<text x="804" xml:space="preserve" y="339" clip-path="url(#clipPath2)" stroke="none"/>
<text x="804" xml:space="preserve" y="489" clip-path="url(#clipPath2)" stroke="none"/>
<text x="804" xml:space="preserve" y="639" clip-path="url(#clipPath2)" stroke="none"/>
<text x="804" xml:space="preserve" y="789" clip-path="url(#clipPath2)" stroke="none"/>
<text x="804" xml:space="preserve" y="939" clip-path="url(#clipPath2)" stroke="none"/>
<text x="804" xml:space="preserve" y="1089" clip-path="url(#clipPath2)" stroke="none"/>
<text x="804" xml:space="preserve" y="1239" clip-path="url(#clipPath2)" stroke="none"/>
<text x="804" xml:space="preserve" y="1389" clip-path="url(#clipPath2)" stroke="none"/>
<text x="804" xml:space="preserve" y="1539" clip-path="url(#clipPath2)" stroke="none"/>
<text x="954" xml:space="preserve" y="-561" clip-path="url(#clipPath2)" stroke="none"/>
<text x="954" xml:space="preserve" y="-411" clip-path="url(#clipPath2)" stroke="none"/>
<text x="954" xml:space="preserve" y="-261" clip-path="url(#clipPath2)" stroke="none"/>
<text x="954" xml:space="preserve" y="-111" clip-path="url(#clipPath2)" stroke="none"/>
<text x="954" xml:space="preserve" y="39" clip-path="url(#clipPath2)" stroke="none"/>
<text x="954" xml:space="preserve" y="189" clip-path="url(#clipPath2)" stroke="none"/>
<text x="954" xml:space="preserve" y="339" clip-path="url(#clipPath2)" stroke="none"/>
<text x="954" xml:space="preserve" y="489" clip-path="url(#clipPath2)" stroke="none"/>
<text x="954" xml:space="preserve" y="639" clip-path="url(#clipPath2)" stroke="none"/>
<text x="954" xml:space="preserve" y="789" clip-path="url(#clipPath2)" stroke="none"/>
<text x="954" xml:space="preserve" y="939" clip-path="url(#clipPath2)" stroke="none"/>
<text x="954" xml:space="preserve" y="1089" clip-path="url(#clipPath2)" stroke="none"/>
<text x="954" xml:space="preserve" y="1239" clip-path="url(#clipPath2)" stroke="none"/>
<text x="954" xml:space="preserve" y="1389" clip-path="url(#clipPath2)" stroke="none"/>
<text x="954" xml:space="preserve" y="1539" clip-path="url(#clipPath2)" stroke="none"/>
<text x="1104" xml:space="preserve" y="-561" clip-path="url(#clipPath2)" stroke="none"/>
<text x="1104" xml:space="preserve" y="-411" clip-path="url(#clipPath2)" stroke="none"/>
<text x="1104" xml:space="preserve" y="-261" clip-path="url(#clipPath2)" stroke="none"/>
<text x="1104" xml:space="preserve" y="-111" clip-path="url(#clipPath2)" stroke="none"/>
<text x="1104" xml:space="preserve" y="39" clip-path="url(#clipPath2)" stroke="none"/>
<text x="1104" xml:space="preserve" y="189" clip-path="url(#clipPath2)" stroke="none"/>
<text x="1104" xml:space="preserve" y="339" clip-path="url(#clipPath2)" stroke="none"/>
<text x="1104" xml:space="preserve" y="489" clip-path="url(#clipPath2)" stroke="none"/>
<text x="1104" xml:space="preserve" y="639" clip-path="url(#clipPath2)" stroke="none"/>
<text x="1104" xml:space="preserve" y="789" clip-path="url(#clipPath2)" stroke="none"/>
<text x="1104" xml:space="preserve" y="939" clip-path="url(#clipPath2)" stroke="none"/>
<text x="1104" xml:space="preserve" y="1089" clip-path="url(#clipPath2)" stroke="none"/>
<text x="1104" xml:space="preserve" y="1239" clip-path="url(#clipPath2)" stroke="none"/>
<text x="1104" xml:space="preserve" y="1389" clip-path="url(#clipPath2)" stroke="none"/>
<text x="1104" xml:space="preserve" y="1539" clip-path="url(#clipPath2)" stroke="none"/>
</g>
<g font-family="'Calibri'" font-size="16">
<text x="94 103 112 121 135 144 149 162 170 177 190 198 202 209 215 227 235 241 249 262 270 274 286 294 302 311 321 328 334 342 358 366 371 378 386 391 399 407 412 423 430 443 450" xml:space="preserve" y="61" stroke="none">PHPWordTemplateExampleRunsFrom${serverName}</text>
<text x="94 106 116 557 568 576 585 592 598 605 611 619 631 639 651 659 664 670 674 687 694" xml:space="preserve" y="1070" stroke="none">1/1Generatedon${time}</text>
<text x="95 102 111 123 127 136 139 143 151 163 166 175 186 192 199 208 212 223 229 238 246 252 260 263 271 281 292 299 302 311 319 323 334 339 348 363 368 377 384 393 400 408 420 428 440 448 456 465 469 472 479 486 492 500 508 516 524 533 544 552 560 569 573 577 583 591 597 604 616 622 630 641 652 658 666" xml:space="preserve" y="127" stroke="none">Thefollowingtablecontainsasinglerowthatcanbeduplicated.Theduplicatedrowscan</text>
<text x="94 100 109 116 128 137 149 156 165 168 174 181 193 202 213 218 227 238 247 256 264 279 287 293 302 310 318 325 338 346 350 357 363 375 382 385 392 399 405 413 421 429 441 445 453 459 469 475 483 495 503 512 515 524 530 534 542 550 554 562 567 570 574 583 594 603 611 617 624 631" xml:space="preserve" y="146" stroke="none">thenbeeditedbythePHPWord_Templateclass.Youjustcaneditsingle-lineoftext</text>
<text x="95 103 107 114 127 135 143 148 154 163 170 179 191 195 204 209 222 229 239 246 255 267 272 281 292 298 305 312 321 330 338 343 352 363 371 380 387 395 408 416 424 433 439 445 452 463 472 480 485 494 503 509 518 525 533" xml:space="preserve" y="166" stroke="none">elements.Theformatandtherestofthedocumentstayuntouched.</text>
<text x="95 102 110 122 125 133 140 148 157 164 171 182 187 199 207 213 224 229 238 248 257 266 274 287 296 301 312 319 326 334 339 345 357 365 372 377 383 390 396 408 411 415 422 433 440 446 458 465 474 481 490 493 501 507 514 523 532 539 542 551 558 563" xml:space="preserve" y="205" font-weight="bold" stroke="none">YoujusthavetousethePHPWordsearchpatternlike${myReplacedValue}.</text>
<text x="87 97 104 108 117 127 135 141 146 155 166 177 185 198 207 214 219 225" xml:space="preserve" y="245" stroke="none">Value${rowNumber}:</text>
<rect x="81" y="229" clip-path="url(#clipPath1)" fill="gray" width="178" text-rendering="optimizeSpeed" height="2" stroke="none"/>
<rect x="79" y="231" clip-path="url(#clipPath1)" fill="rgb(153,153,153)" width="2" text-rendering="optimizeSpeed" height="19" stroke="none"/>
<rect x="81" y="250" clip-path="url(#clipPath1)" fill="gray" width="178" text-rendering="optimizeSpeed" height="1" stroke="none"/>
<rect x="79" y="250" clip-path="url(#clipPath1)" fill="gray" width="2" text-rendering="optimizeSpeed" height="1" stroke="none"/>
<rect x="79" y="229" clip-path="url(#clipPath1)" fill="gray" width="2" text-rendering="optimizeSpeed" height="2" stroke="none"/>
<text x="268 275 280 285 293 305 314 322 325 333 340" xml:space="preserve" y="245" font-weight="bold" stroke="none">${rowValue}</text>
</g>
<g fill="gray" text-rendering="optimizeSpeed" font-size="16" font-weight="bold" font-family="'Calibri'" stroke="gray">
<rect x="260" width="383" height="2" y="229" clip-path="url(#clipPath1)" stroke="none"/>
<rect x="259" width="1" height="19" y="231" clip-path="url(#clipPath1)" stroke="none"/>
<rect x="260" width="383" height="1" y="250" clip-path="url(#clipPath1)" stroke="none"/>
<rect x="643" width="2" height="19" y="231" clip-path="url(#clipPath1)" stroke="none"/>
<rect x="643" width="2" height="2" y="229" clip-path="url(#clipPath1)" stroke="none"/>
<rect x="643" width="2" height="1" y="250" clip-path="url(#clipPath1)" stroke="none"/>
<rect x="259" width="1" height="1" y="250" clip-path="url(#clipPath1)" stroke="none"/>
<rect x="259" width="1" height="2" y="229" clip-path="url(#clipPath1)" stroke="none"/>
</g>
<g font-family="'Calibri'" font-size="16">
<text x="95 105 114 121 130 142 149 156 168 177 184 195 201 210 223 231 235 243 253 259 266 275 279 286 296 300 303 311 322 328 337 344 351 358" xml:space="preserve" y="284" stroke="none">Oryoucanusecomplextableslikethese:</text>
<text x="94 103 110 118 124 131 137 142 150 299 310 318 330 503 512 519 527 533 541 546 557 565 577 585" xml:space="preserve" y="324" font-family="'Times New Roman'" stroke="none">${userId}Name${userName}</text>
<rect x="87" y="308" clip-path="url(#clipPath1)" width="204" text-rendering="optimizeSpeed" height="1" stroke="none"/>
<rect x="86" y="309" clip-path="url(#clipPath1)" width="1" text-rendering="optimizeSpeed" height="18" stroke="none"/>
<rect x="86" y="327" clip-path="url(#clipPath1)" width="1" text-rendering="optimizeSpeed" height="1" stroke="none"/>
<rect x="86" y="308" clip-path="url(#clipPath1)" width="1" text-rendering="optimizeSpeed" height="1" stroke="none"/>
<rect x="292" y="308" clip-path="url(#clipPath1)" width="204" text-rendering="optimizeSpeed" height="1" stroke="none"/>
<rect x="291" y="309" clip-path="url(#clipPath1)" width="1" text-rendering="optimizeSpeed" height="18" stroke="none"/>
<rect x="291" y="308" clip-path="url(#clipPath1)" width="1" text-rendering="optimizeSpeed" height="1" stroke="none"/>
<rect x="497" y="308" clip-path="url(#clipPath1)" width="203" text-rendering="optimizeSpeed" height="1" stroke="none"/>
<rect x="496" y="309" clip-path="url(#clipPath1)" width="1" text-rendering="optimizeSpeed" height="18" stroke="none"/>
<rect x="700" y="309" clip-path="url(#clipPath1)" width="1" text-rendering="optimizeSpeed" height="18" stroke="none"/>
<rect x="700" y="308" clip-path="url(#clipPath1)" width="1" text-rendering="optimizeSpeed" height="1" stroke="none"/>
<rect x="496" y="308" clip-path="url(#clipPath1)" width="1" text-rendering="optimizeSpeed" height="1" stroke="none"/>
<rect x="86" y="328" clip-path="url(#clipPath1)" width="1" text-rendering="optimizeSpeed" height="19" stroke="none"/>
<rect x="86" y="347" clip-path="url(#clipPath1)" width="1" text-rendering="optimizeSpeed" height="1" stroke="none"/>
<rect x="86" y="327" clip-path="url(#clipPath1)" width="1" text-rendering="optimizeSpeed" height="1" stroke="none"/>
<text x="300 308 312 318 324 332 340 348 360 503 512 519 527 533 541 547 555 559 565 571 576 587 594 606 614" xml:space="preserve" y="343" font-family="'Times New Roman'" stroke="none">Firstname${userFirstName}</text>
<rect x="292" y="327" clip-path="url(#clipPath1)" width="204" text-rendering="optimizeSpeed" height="1" stroke="none"/>
<rect x="291" y="328" clip-path="url(#clipPath1)" width="1" text-rendering="optimizeSpeed" height="19" stroke="none"/>
<rect x="291" y="327" clip-path="url(#clipPath1)" width="1" text-rendering="optimizeSpeed" height="1" stroke="none"/>
<rect x="497" y="327" clip-path="url(#clipPath1)" width="203" text-rendering="optimizeSpeed" height="1" stroke="none"/>
<rect x="496" y="328" clip-path="url(#clipPath1)" width="1" text-rendering="optimizeSpeed" height="19" stroke="none"/>
<rect x="700" y="328" clip-path="url(#clipPath1)" width="1" text-rendering="optimizeSpeed" height="19" stroke="none"/>
<rect x="700" y="327" clip-path="url(#clipPath1)" width="1" text-rendering="optimizeSpeed" height="1" stroke="none"/>
<rect x="496" y="327" clip-path="url(#clipPath1)" width="1" text-rendering="optimizeSpeed" height="1" stroke="none"/>
<rect x="86" y="348" clip-path="url(#clipPath1)" width="1" text-rendering="optimizeSpeed" height="18" stroke="none"/>
<rect x="87" y="366" clip-path="url(#clipPath1)" width="204" text-rendering="optimizeSpeed" height="1" stroke="none"/>
<rect x="86" y="366" clip-path="url(#clipPath1)" width="1" text-rendering="optimizeSpeed" height="1" stroke="none"/>
<rect x="86" y="347" clip-path="url(#clipPath1)" width="1" text-rendering="optimizeSpeed" height="1" stroke="none"/>
<text x="300 308 316 324 332 503 512 519 527 533 541 547 555 563 571 579 586" xml:space="preserve" y="363" font-family="'Times New Roman'" stroke="none">Phone${userPhone}</text>
<rect x="292" y="347" clip-path="url(#clipPath1)" width="204" text-rendering="optimizeSpeed" height="1" stroke="none"/>
<rect x="291" y="348" clip-path="url(#clipPath1)" width="1" text-rendering="optimizeSpeed" height="18" stroke="none"/>
<rect x="292" y="366" clip-path="url(#clipPath1)" width="204" text-rendering="optimizeSpeed" height="1" stroke="none"/>
<rect x="291" y="366" clip-path="url(#clipPath1)" width="1" text-rendering="optimizeSpeed" height="1" stroke="none"/>
<rect x="291" y="347" clip-path="url(#clipPath1)" width="1" text-rendering="optimizeSpeed" height="1" stroke="none"/>
<rect x="497" y="347" clip-path="url(#clipPath1)" width="203" text-rendering="optimizeSpeed" height="1" stroke="none"/>
<rect x="496" y="348" clip-path="url(#clipPath1)" width="1" text-rendering="optimizeSpeed" height="18" stroke="none"/>
<rect x="497" y="366" clip-path="url(#clipPath1)" width="203" text-rendering="optimizeSpeed" height="1" stroke="none"/>
<rect x="700" y="348" clip-path="url(#clipPath1)" width="1" text-rendering="optimizeSpeed" height="18" stroke="none"/>
<rect x="700" y="347" clip-path="url(#clipPath1)" width="1" text-rendering="optimizeSpeed" height="1" stroke="none"/>
<rect x="700" y="366" clip-path="url(#clipPath1)" width="1" text-rendering="optimizeSpeed" height="1" stroke="none"/>
<rect x="496" y="366" clip-path="url(#clipPath1)" width="1" text-rendering="optimizeSpeed" height="1" stroke="none"/>
<rect x="496" y="347" clip-path="url(#clipPath1)" width="1" text-rendering="optimizeSpeed" height="1" stroke="none"/>
</g>
<g fill="yellow" text-rendering="optimizeSpeed" font-size="16" font-family="'Times New Roman'" stroke="yellow">
<rect x="241" width="122" height="19" y="404" clip-path="url(#clipPath1)" stroke="none"/>
<text x="95 104 112 120 127 139 144" y="419" fill="black" text-rendering="auto" stroke="none" xml:space="preserve">Todayis</text>
</g>
<g fill="rgb(255,153,0)" font-size="16" font-weight="bold" font-family="'Times New Roman'" stroke="rgb(255,153,0)">
<text x="154 162 168 179 186 194 203 212 220 227 234" xml:space="preserve" y="419" stroke="none">${weekday}.</text>
<text x="242 251 259 266 274 282 292 297 306 315 320 327 334 343 347 355 363" y="419" fill="black" stroke="none" font-weight="normal" xml:space="preserve">Thanksforreading.</text>
</g>
</g>
</svg>
